<svg width="40" height="40" viewBox="0 0 40 40" fill="none" xmlns="http://www.w3.org/2000/svg">
<g clip-path="url(#clip0_62_13)">
<path d="M20.0002 13.3333V6.66667H13.3335" stroke="white" stroke-width="2" stroke-linecap="round" stroke-linejoin="round"/>
<path d="M29.9998 13.3333H9.99984C8.15889 13.3333 6.6665 14.8257 6.6665 16.6667V30C6.6665 31.8409 8.15889 33.3333 9.99984 33.3333H29.9998C31.8408 33.3333 33.3332 31.8409 33.3332 30V16.6667C33.3332 14.8257 31.8408 13.3333 29.9998 13.3333Z" stroke="white" stroke-width="2" stroke-linecap="round" stroke-linejoin="round"/>
<path d="M3.3335 23.3333H6.66683" stroke="white" stroke-width="2" stroke-linecap="round" stroke-linejoin="round"/>
<path d="M33.3335 23.3333H36.6668" stroke="white" stroke-width="2" stroke-linecap="round" stroke-linejoin="round"/>
<path d="M25 21.6667V25" stroke="white" stroke-width="2" stroke-linecap="round" stroke-linejoin="round"/>
<path d="M15 21.6667V25" stroke="white" stroke-width="2" stroke-linecap="round" stroke-linejoin="round"/>
<g clip-path="url(#clip1_62_13)" filter="url(#filter0_d_62_13)">
<path d="M26.4409 31.1864V28.4746C26.4409 28.115 26.5838 27.7701 26.8381 27.5158C27.0923 27.2615 27.4372 27.1186 27.7969 27.1186H30.4409C30.6677 27.1164 30.8914 27.1711 31.0916 27.2777C31.2917 27.3843 31.462 27.5394 31.5867 27.7288L32.1358 28.5424C32.2593 28.7299 32.4274 28.8837 32.625 28.9902C32.8226 29.0967 33.0436 29.1525 33.268 29.1525H38.6443C39.0039 29.1525 39.3488 29.2954 39.6031 29.5497C39.8574 29.804 40.0002 30.1489 40.0002 30.5085V37.2881C40.0002 37.6478 39.8574 37.9926 39.6031 38.2469C39.3488 38.5012 39.0039 38.6441 38.6443 38.6441H27.7969C27.4372 38.6441 27.0923 38.5012 26.8381 38.2469C26.5838 37.9926 26.4409 37.6478 26.4409 37.2881V36.6102" stroke="#ADADAD" stroke-width="2" stroke-linecap="round" stroke-linejoin="round"/>
<path d="M26.4409 33.8983H33.2206" stroke="#ADADAD" stroke-width="2" stroke-linecap="round" stroke-linejoin="round"/>
<path d="M31.1865 35.9322L33.2204 33.8983L31.1865 31.8644" stroke="#ADADAD" stroke-width="2" stroke-linecap="round" stroke-linejoin="round"/>
</g>
</g>
<defs>
<filter id="filter0_d_62_13" x="21.085" y="25.0847" width="24.271" height="24.2712" filterUnits="userSpaceOnUse" color-interpolation-filters="sRGB">
<feFlood flood-opacity="0" result="BackgroundImageFix"/>
<feColorMatrix in="SourceAlpha" type="matrix" values="0 0 0 0 0 0 0 0 0 0 0 0 0 0 0 0 0 0 127 0" result="hardAlpha"/>
<feOffset dy="4"/>
<feGaussianBlur stdDeviation="2"/>
<feComposite in2="hardAlpha" operator="out"/>
<feColorMatrix type="matrix" values="0 0 0 0 0 0 0 0 0 0 0 0 0 0 0 0 0 0 0.25 0"/>
<feBlend mode="normal" in2="BackgroundImageFix" result="effect1_dropShadow_62_13"/>
<feBlend mode="normal" in="SourceGraphic" in2="effect1_dropShadow_62_13" result="shape"/>
</filter>
<clipPath id="clip0_62_13">
<rect width="40" height="40" fill="white"/>
</clipPath>
<clipPath id="clip1_62_13">
<rect width="16.2712" height="16.2712" fill="white" transform="translate(25.085 25.0847)"/>
</clipPath>
</defs>
</svg>
